<svg width="26" height="26" viewBox="0 0 26 26" fill="none" xmlns="http://www.w3.org/2000/svg">
<path d="M24.25 12.9999C23.9185 12.9999 23.6005 13.1316 23.3661 13.366C23.1317 13.6005 23 13.9184 23 14.2499V21.7499C23 22.0814 22.8683 22.3994 22.6339 22.6338C22.3995 22.8682 22.0815 22.9999 21.75 22.9999H4.25C3.91848 22.9999 3.60054 22.8682 3.36612 22.6338C3.1317 22.3994 3 22.0814 3 21.7499V4.24992C3 3.9184 3.1317 3.60046 3.36612 3.36604C3.60054 3.13162 3.91848 2.99992 4.25 2.99992H11.75C12.0815 2.99992 12.3995 2.86823 12.6339 2.63381C12.8683 2.39939 13 2.08144 13 1.74992C13 1.4184 12.8683 1.10046 12.6339 0.86604C12.3995 0.63162 12.0815 0.499924 11.75 0.499924H4.25C3.25544 0.499924 2.30161 0.895012 1.59835 1.59827C0.895088 2.30153 0.5 3.25536 0.5 4.24992V21.7499C0.5 22.7445 0.895088 23.6983 1.59835 24.4016C2.30161 25.1048 3.25544 25.4999 4.25 25.4999H21.75C22.7446 25.4999 23.6984 25.1048 24.4017 24.4016C25.1049 23.6983 25.5 22.7445 25.5 21.7499V14.2499C25.5 13.9184 25.3683 13.6005 25.1339 13.366C24.8995 13.1316 24.5815 12.9999 24.25 12.9999ZM5.5 13.9499V19.2499C5.5 19.5814 5.6317 19.8994 5.86612 20.1338C6.10054 20.3682 6.41848 20.4999 6.75 20.4999H12.05C12.2145 20.5009 12.3776 20.4693 12.5299 20.4071C12.6822 20.3449 12.8207 20.2533 12.9375 20.1374L21.5875 11.4749L25.1375 7.99992C25.2547 7.88372 25.3477 7.74547 25.4111 7.59314C25.4746 7.44082 25.5072 7.27744 25.5072 7.11242C25.5072 6.94741 25.4746 6.78403 25.4111 6.6317C25.3477 6.47938 25.2547 6.34113 25.1375 6.22492L19.8375 0.862424C19.7213 0.745263 19.583 0.65227 19.4307 0.588809C19.2784 0.525349 19.115 0.492676 18.95 0.492676C18.785 0.492676 18.6216 0.525349 18.4693 0.588809C18.317 0.65227 18.1787 0.745263 18.0625 0.862424L14.5375 4.39992L5.8625 13.0624C5.74665 13.1792 5.65499 13.3177 5.59279 13.47C5.53058 13.6223 5.49905 13.7854 5.5 13.9499ZM18.95 3.51242L22.4875 7.04992L20.7125 8.82492L17.175 5.28742L18.95 3.51242ZM8 14.4624L15.4125 7.04992L18.95 10.5874L11.5375 17.9999H8V14.4624Z" fill="#F4538A"/>
</svg>
