<svg width="31" height="21" viewBox="0 0 31 21" fill="none" xmlns="http://www.w3.org/2000/svg">
<path d="M19.9964 0.750001C22.7505 0.748721 25.3948 1.77833 27.3593 3.61686C29.3238 5.4554 30.4512 7.95562 30.4985 10.5785C30.5457 13.2015 29.5089 15.737 27.6117 17.6387C25.7145 19.5403 23.1088 20.6556 20.3563 20.7443L19.9964 20.75H11.0036C8.24955 20.7513 5.60522 19.7217 3.64069 17.8831C1.67616 16.0446 0.548765 13.5444 0.501545 10.9215C0.454326 8.29852 1.49106 5.76296 3.38826 3.86135C5.28546 1.95973 7.89117 0.844378 10.6437 0.755716L11.0021 0.750001H19.9964ZM19.9964 2.89286H11.0036C8.84161 2.88852 6.76422 3.69287 5.21855 5.13281C3.67289 6.57274 2.78252 8.53315 2.73908 10.5921C2.69563 12.6511 3.50258 14.6439 4.98626 16.1419C6.46993 17.6398 8.51172 18.523 10.6722 18.6014L11.0036 18.6071H19.9964C22.1584 18.6115 24.2358 17.8071 25.7814 16.3672C27.3271 14.9273 28.2175 12.9669 28.2609 10.9079C28.3044 8.84895 27.4974 6.85605 26.0137 5.35812C24.5301 3.86019 22.4883 2.97698 20.3278 2.89857L19.9964 2.89286ZM9.50085 6.46429C9.79918 6.46429 10.0853 6.57717 10.2962 6.7781C10.5072 6.97903 10.6257 7.25155 10.6257 7.53571V9.67571H12.8754C13.1737 9.67571 13.4598 9.7886 13.6708 9.98953C13.8817 10.1905 14.0002 10.463 14.0002 10.7471C14.0002 11.0313 13.8817 11.3038 13.6708 11.5048C13.4598 11.7057 13.1737 11.8186 12.8754 11.8186H10.6257V13.9643C10.6257 14.2484 10.5072 14.521 10.2962 14.7219C10.0853 14.9228 9.79918 15.0357 9.50085 15.0357C9.20252 15.0357 8.91642 14.9228 8.70547 14.7219C8.49452 14.521 8.37601 14.2484 8.37601 13.9643V11.8186H6.12633C5.97861 11.8186 5.83234 11.7909 5.69587 11.737C5.5594 11.6832 5.4354 11.6042 5.33094 11.5048C5.22649 11.4053 5.14364 11.2872 5.08711 11.1572C5.03058 11.0272 5.00149 10.8878 5.00149 10.7471C5.00149 10.6064 5.03058 10.4671 5.08711 10.3371C5.14364 10.2071 5.22649 10.089 5.33094 9.98953C5.4354 9.89004 5.5594 9.81112 5.69587 9.75727C5.83234 9.70343 5.97861 9.67571 6.12633 9.67571H8.37601V7.53571C8.37601 7.25155 8.49452 6.97903 8.70547 6.7781C8.91642 6.57717 9.20252 6.46429 9.50085 6.46429ZM19.6244 11.4643C20.1216 11.4643 20.5985 11.6524 20.9501 11.9873C21.3016 12.3222 21.4991 12.7764 21.4991 13.25C21.4991 13.7236 21.3016 14.1778 20.9501 14.5127C20.5985 14.8476 20.1216 15.0357 19.6244 15.0357C19.1272 15.0357 18.6504 14.8476 18.2988 14.5127C17.9472 14.1778 17.7497 13.7236 17.7497 13.25C17.7497 12.7764 17.9472 12.3222 18.2988 11.9873C18.6504 11.6524 19.1272 11.4643 19.6244 11.4643ZM22.624 6.46429C23.1212 6.46429 23.598 6.65242 23.9496 6.98731C24.3012 7.3222 24.4987 7.7764 24.4987 8.25C24.4987 8.7236 24.3012 9.1778 23.9496 9.51269C23.598 9.84758 23.1212 10.0357 22.624 10.0357C22.1268 10.0357 21.6499 9.84758 21.2984 9.51269C20.9468 9.1778 20.7493 8.7236 20.7493 8.25C20.7493 7.7764 20.9468 7.3222 21.2984 6.98731C21.6499 6.65242 22.1268 6.46429 22.624 6.46429Z" fill="#F4538A"/>
</svg>
