<svg width="1280" height="96" viewBox="0 0 1280 96" fill="none" xmlns="http://www.w3.org/2000/svg">
<path d="M21.531 74.2938L13.3406 50.6668C11.7152 45.978 8.95773 41.7512 5.31401 38.363L-10.7709 23.4061L46.1288 23.247L44.5123 36.9786C43.8989 42.1885 41.9239 47.1314 38.7851 51.3122L21.531 74.2938Z" fill="#58BB48"/>
<path d="M55.4412 57.7789L50.5505 44.7928C48.712 39.9111 45.6394 35.5771 41.634 32.2158L31.9057 24.0517L73.8509 23.6814L73.0173 29.7044C72.2551 35.2116 69.97 40.3816 66.4179 44.635L55.4412 57.7789Z" fill="#58BB48"/>
<path d="M81.4036 76.0798L73.1958 51.4671C71.6663 46.8808 69.0564 42.7184 65.587 39.3325L49.6535 23.7827L105.25 23.7995L103.674 38.3128C103.124 43.3753 101.289 48.2003 98.3422 52.3318L81.4036 76.0798Z" fill="#58BB48"/>
<path d="M107.843 49.149L105.209 41.8261C103.49 37.0471 100.593 32.7675 96.7863 29.3859L91.8615 25.0106L120.163 24.8532L119.891 26.9959C119.214 32.3409 117.103 37.3889 113.781 41.6076L107.843 49.149Z" fill="#58BB48"/>
<path d="M138.232 73.8181L130.042 50.1912C128.416 45.5024 125.659 41.2756 122.015 37.8874L105.93 22.9304L162.83 22.7714L161.213 36.5029C160.6 41.7128 158.625 46.6557 155.486 50.8366L138.232 73.8181Z" fill="#58BB48"/>
<path d="M172.142 57.3032L167.252 44.3171C165.413 39.4355 162.34 35.1014 158.335 31.7401L148.607 23.576L190.552 23.2057L189.718 29.2288C188.956 34.7359 186.671 39.9059 183.119 44.1593L172.142 57.3032Z" fill="#58BB48"/>
<path d="M198.105 75.6041L189.897 50.9914C188.367 46.4051 185.757 42.2427 182.288 38.8569L166.355 23.3071L221.951 23.3238L220.375 37.8371C219.825 42.8996 217.99 47.7247 215.043 51.8562L198.105 75.6041Z" fill="#58BB48"/>
<path d="M224.544 48.6733L221.91 41.3504C220.191 36.5714 217.294 32.2918 213.487 28.9102L208.563 24.535L236.864 24.3775L236.593 26.5203C235.915 31.8653 233.804 36.9133 230.482 41.1319L224.544 48.6733Z" fill="#58BB48"/>
<path d="M244.907 73.9076L236.717 50.2807C235.091 45.5918 232.334 41.365 228.69 37.9768L212.605 23.0199L269.505 22.8608L267.888 36.5924C267.275 41.8023 265.3 46.7452 262.161 50.926L244.907 73.9076Z" fill="#58BB48"/>
<path d="M278.817 57.3926L273.926 44.4066C272.088 39.5249 269.015 35.1908 265.01 31.8296L255.282 23.6655L297.227 23.2951L296.393 29.3182C295.631 34.8254 293.346 39.9954 289.794 44.2488L278.817 57.3926Z" fill="#58BB48"/>
<path d="M304.779 75.6936L296.572 51.0809C295.042 46.4946 292.432 42.3322 288.963 38.9463L273.029 23.3965L328.626 23.4133L327.05 37.9266C326.5 42.9891 324.665 47.8141 321.718 51.9456L304.779 75.6936Z" fill="#58BB48"/>
<path d="M331.218 48.7627L328.585 41.4399C326.866 36.6609 323.969 32.3812 320.162 28.9997L315.237 24.6244L343.539 24.4669L343.267 26.6097C342.59 31.9547 340.479 37.0027 337.157 41.2213L331.218 48.7627Z" fill="#58BB48"/>
<path d="M361.608 73.4319L353.417 49.805C351.792 45.1162 349.035 40.8894 345.391 37.5012L329.306 22.5442L386.206 22.3852L384.589 36.1168C383.976 41.3267 382.001 46.2695 378.862 50.4504L361.608 73.4319Z" fill="#58BB48"/>
<path d="M395.518 56.917L390.627 43.931C388.789 39.0493 385.716 34.7152 381.711 31.3539L371.983 23.1899L413.928 22.8195L413.094 28.8426C412.332 34.3498 410.047 39.5197 406.495 43.7731L395.518 56.917Z" fill="#58BB48"/>
<path d="M421.481 75.218L413.273 50.6053C411.743 46.019 409.133 41.8566 405.664 38.4707L389.73 22.9209L445.327 22.9376L443.751 37.4509C443.201 42.5135 441.366 47.3385 438.419 51.47L421.481 75.218Z" fill="#58BB48"/>
<path d="M447.92 48.2872L445.286 40.9643C443.567 36.1853 440.67 31.9057 436.863 28.5241L431.938 24.1488L460.24 23.9913L459.968 26.1341C459.291 31.4791 457.18 36.5271 453.858 40.7458L447.92 48.2872Z" fill="#58BB48"/>
<path d="M422.654 73.9427L414.463 50.3158C412.838 45.627 410.08 41.4001 406.437 38.0119L390.352 23.055L447.251 22.896L445.635 36.6275C445.022 41.8374 443.047 46.7803 439.908 50.9611L422.654 73.9427Z" fill="#58BB48"/>
<path d="M456.564 57.4278L451.673 44.4417C449.835 39.56 446.762 35.226 442.757 31.8647L433.028 23.7006L474.974 23.3303L474.14 29.3533C473.378 34.8605 471.093 40.0305 467.541 44.2839L456.564 57.4278Z" fill="#58BB48"/>
<path d="M482.526 75.7287L474.318 51.116C472.789 46.5297 470.179 42.3673 466.71 38.9814L450.776 23.4316L506.372 23.4484L504.796 37.9616C504.247 43.0242 502.412 47.8492 499.465 51.9807L482.526 75.7287Z" fill="#58BB48"/>
<path d="M508.965 48.7978L506.332 41.475C504.613 36.696 501.715 32.4163 497.909 29.0348L492.984 24.6595L521.286 24.502L521.014 26.6448C520.337 31.9898 518.226 37.0378 514.904 41.2564L508.965 48.7978Z" fill="#58BB48"/>
<path d="M539.355 73.467L531.165 49.8401C529.539 45.1513 526.782 40.9245 523.138 37.5363L507.053 22.5793L563.953 22.4203L562.336 36.1518C561.723 41.3617 559.748 46.3046 556.609 50.4855L539.355 73.467Z" fill="#58BB48"/>
<path d="M573.265 56.9521L568.374 43.9661C566.536 39.0844 563.463 34.7503 559.458 31.389L549.729 23.225L591.675 22.8546L590.841 28.8777C590.079 34.3849 587.794 39.5548 584.242 43.8082L573.265 56.9521Z" fill="#58BB48"/>
<path d="M599.227 75.253L591.02 50.6403C589.49 46.054 586.88 41.8916 583.411 38.5057L567.477 22.956L623.074 22.9727L621.498 37.486C620.948 42.5485 619.113 47.3736 616.166 51.505L599.227 75.253Z" fill="#58BB48"/>
<path d="M625.666 48.3222L623.033 40.9993C621.314 36.2203 618.417 31.9407 614.61 28.5591L609.685 24.1838L637.987 24.0263L637.715 26.1691C637.038 31.5141 634.927 36.5621 631.605 40.7808L625.666 48.3222Z" fill="#58BB48"/>
<path d="M659.765 74.4233L651.575 50.7964C649.949 46.1076 647.192 41.8807 643.548 38.4925L627.463 23.5356L684.363 23.3766L682.746 37.1081C682.133 42.318 680.158 47.2609 677.019 51.4417L659.765 74.4233Z" fill="#58BB48"/>
<path d="M693.675 57.9084L688.785 44.9223C686.946 40.0407 683.873 35.7066 679.868 32.3453L670.14 24.1812L712.085 23.8109L711.251 29.8339C710.489 35.3411 708.204 40.5111 704.652 44.7645L693.675 57.9084Z" fill="#58BB48"/>
<path d="M719.638 76.2093L711.43 51.5966C709.9 47.0103 707.29 42.8479 703.821 39.462L687.887 23.9123L743.484 23.929L741.908 38.4423C741.358 43.5048 739.523 48.3298 736.576 52.4613L719.638 76.2093Z" fill="#58BB48"/>
<path d="M746.077 49.2785L743.443 41.9556C741.724 37.1766 738.827 32.897 735.021 29.5154L730.096 25.1402L758.397 24.9827L758.126 27.1255C757.449 32.4705 755.338 37.5184 752.015 41.7371L746.077 49.2785Z" fill="#58BB48"/>
<path d="M776.466 73.9476L768.276 50.3207C766.65 45.6319 763.893 41.4051 760.249 38.0169L744.164 23.0599L801.064 22.9009L799.448 36.6324C798.834 41.8424 796.859 46.7852 793.72 50.9661L776.466 73.9476Z" fill="#58BB48"/>
<path d="M810.377 57.4327L805.486 44.4466C803.647 39.565 800.575 35.2309 796.569 31.8696L786.841 23.7055L828.786 23.3352L827.953 29.3583C827.19 34.8655 824.905 40.0354 821.353 44.2888L810.377 57.4327Z" fill="#58BB48"/>
<path d="M836.339 75.7337L828.131 51.121C826.602 46.5347 823.992 42.3722 820.522 38.9864L804.589 23.4366L860.185 23.4533L858.609 37.9666C858.059 43.0292 856.224 47.8542 853.277 51.9857L836.339 75.7337Z" fill="#58BB48"/>
<path d="M862.778 48.8028L860.144 41.4799C858.425 36.701 855.528 32.4213 851.722 29.0397L846.797 24.6645L875.098 24.507L874.827 26.6498C874.149 31.9948 872.038 37.0428 868.716 41.2614L862.778 48.8028Z" fill="#58BB48"/>
<path d="M883.141 74.0371L874.951 50.4102C873.325 45.7214 870.568 41.4945 866.924 38.1063L850.839 23.1494L907.739 22.9904L906.122 36.7219C905.509 41.9318 903.534 46.8747 900.395 51.0555L883.141 74.0371Z" fill="#58BB48"/>
<path d="M917.051 57.5222L912.161 44.5361C910.322 39.6544 907.249 35.3204 903.244 31.9591L893.516 23.795L935.461 23.4247L934.627 29.4477C933.865 34.9549 931.58 40.1249 928.028 44.3783L917.051 57.5222Z" fill="#58BB48"/>
<path d="M943.014 75.8231L934.806 51.2104C933.276 46.6241 930.666 42.4617 927.197 39.0758L911.263 23.5261L966.86 23.5428L965.284 38.0561C964.734 43.1186 962.899 47.9436 959.952 52.0751L943.014 75.8231Z" fill="#58BB48"/>
<path d="M969.452 48.8923L966.819 41.5694C965.1 36.7904 962.203 32.5108 958.396 29.1292L953.471 24.7539L981.773 24.5964L981.501 26.7392C980.824 32.0842 978.713 37.1322 975.391 41.3509L969.452 48.8923Z" fill="#58BB48"/>
<path d="M999.842 73.5615L991.652 49.9345C990.026 45.2457 987.269 41.0189 983.625 37.6307L967.54 22.6738L1024.44 22.5147L1022.82 36.2463C1022.21 41.4562 1020.24 46.3991 1017.1 50.5799L999.842 73.5615Z" fill="#58BB48"/>
<path d="M1033.75 57.0465L1028.86 44.0605C1027.02 39.1788 1023.95 34.8447 1019.95 31.4835L1010.22 23.3194L1052.16 22.949L1051.33 28.9721C1050.57 34.4793 1048.28 39.6493 1044.73 43.9027L1033.75 57.0465Z" fill="#58BB48"/>
<path d="M1059.71 75.3475L1051.51 50.7348C1049.98 46.1485 1047.37 41.9861 1043.9 38.6002L1027.96 23.0504L1083.56 23.0672L1081.98 37.5805C1081.44 42.643 1079.6 47.468 1076.65 51.5995L1059.71 75.3475Z" fill="#58BB48"/>
<path d="M1086.15 48.4167L1083.52 41.0938C1081.8 36.3148 1078.9 32.0352 1075.1 28.6536L1070.17 24.2783L1098.47 24.1209L1098.2 26.2636C1097.53 31.6086 1095.41 36.6566 1092.09 40.8753L1086.15 48.4167Z" fill="#58BB48"/>
<path d="M1060.89 74.0722L1052.7 50.4453C1051.07 45.7565 1048.31 41.5297 1044.67 38.1415L1028.59 23.1845L1085.49 23.0255L1083.87 36.757C1083.26 41.9669 1081.28 46.9098 1078.14 51.0906L1060.89 74.0722Z" fill="#58BB48"/>
<path d="M1094.8 57.5573L1089.91 44.5712C1088.07 39.6896 1085 35.3555 1080.99 31.9942L1071.26 23.8301L1113.21 23.4598L1112.37 29.4828C1111.61 34.99 1109.33 40.16 1105.77 44.4134L1094.8 57.5573Z" fill="#58BB48"/>
<path d="M1120.76 75.8582L1112.55 51.2455C1111.02 46.6592 1108.41 42.4968 1104.94 39.1109L1089.01 23.5612L1144.61 23.5779L1143.03 38.0912C1142.48 43.1537 1140.65 47.9787 1137.7 52.1102L1120.76 75.8582Z" fill="#58BB48"/>
<path d="M1147.2 48.9274L1144.57 41.6045C1142.85 36.8255 1139.95 32.5458 1136.14 29.1643L1131.22 24.789L1159.52 24.6315L1159.25 26.7743C1158.57 32.1193 1156.46 37.1673 1153.14 41.386L1147.2 48.9274Z" fill="#58BB48"/>
<path d="M1177.59 73.5965L1169.4 49.9696C1167.77 45.2808 1165.02 41.054 1161.37 37.6658L1145.29 22.7088L1202.19 22.5498L1200.57 36.2813C1199.96 41.4912 1197.98 46.4341 1194.84 50.615L1177.59 73.5965Z" fill="#58BB48"/>
<path d="M1211.5 57.0816L1206.61 44.0956C1204.77 39.2139 1201.7 34.8798 1197.69 31.5186L1187.96 23.3545L1229.91 22.9841L1229.08 29.0072C1228.31 34.5144 1226.03 39.6844 1222.48 43.9378L1211.5 57.0816Z" fill="#58BB48"/>
<path d="M1237.46 75.3825L1229.25 50.7698C1227.72 46.1835 1225.11 42.0211 1221.64 38.6353L1205.71 23.0855L1261.31 23.1022L1259.73 37.6155C1259.18 42.678 1257.35 47.5031 1254.4 51.6345L1237.46 75.3825Z" fill="#58BB48"/>
<path d="M1263.9 48.4517L1261.27 41.1288C1259.55 36.3498 1256.65 32.0702 1252.84 28.6886L1247.92 24.3133L1276.22 24.1559L1275.95 26.2986C1275.27 31.6436 1273.16 36.6916 1269.84 40.9103L1263.9 48.4517Z" fill="#58BB48"/>
</svg>
