<svg width="23" height="21" viewBox="0 0 23 21" fill="none" xmlns="http://www.w3.org/2000/svg">
<path d="M2.75 12.3236C2.75 11.0611 2.75 10.4311 3.0275 9.89238C3.30375 9.35488 3.8175 8.98738 4.84375 8.25488L10.0475 4.53738C10.7475 4.03738 11.1 3.78613 11.5 3.78613C11.9 3.78613 12.2512 4.03613 12.9525 4.53738L18.1563 8.25363C19.1825 8.98738 19.6962 9.35363 19.9725 9.89238C20.25 10.4299 20.25 11.0611 20.25 12.3224V18.4999C20.25 19.6786 20.25 20.2674 19.8838 20.6336C19.5175 20.9999 18.9288 20.9999 17.75 20.9999H5.25C4.07125 20.9999 3.4825 20.9999 3.11625 20.6336C2.75 20.2674 2.75 19.6786 2.75 18.4999V12.3236Z" fill="#F1D9DB"/>
<path d="M0.25 10.2337C0.25 10.5662 0.25 10.7337 0.355 10.785C0.46 10.8362 0.5925 10.735 0.855 10.5287L9.965 3.44374C10.7025 2.86999 11.0713 2.58374 11.5 2.58374C11.9287 2.58374 12.2975 2.87124 13.035 3.44374L22.145 10.5287C22.4075 10.7337 22.54 10.8362 22.645 10.785C22.75 10.7337 22.75 10.5662 22.75 10.2337V9.72249C22.75 9.12249 22.75 8.82249 22.6225 8.56249C22.4963 8.30249 22.2588 8.11749 21.785 7.74999L13.035 0.94374C12.2975 0.36999 11.9287 0.0837402 11.5 0.0837402C11.0713 0.0837402 10.7025 0.37124 9.965 0.94374L1.215 7.74999C0.74125 8.11749 0.50375 8.30249 0.3775 8.56249C0.25 8.82249 0.25 9.12249 0.25 9.72249V10.2337ZM12.125 13.5H10.875C10.212 13.5 9.57607 13.7634 9.10723 14.2322C8.63839 14.7011 8.375 15.3369 8.375 16V20.8125C8.375 20.9162 8.45875 21 8.5625 21H14.4375C14.4872 21 14.5349 20.9802 14.5701 20.9451C14.6052 20.9099 14.625 20.8622 14.625 20.8125V16C14.625 15.3369 14.3616 14.7011 13.8928 14.2322C13.4239 13.7634 12.788 13.5 12.125 13.5Z" fill="#F4538A"/>
<path d="M18.375 1H17.125C16.7798 1 16.5 1.27982 16.5 1.625V5.375C16.5 5.72018 16.7798 6 17.125 6H18.375C18.7202 6 19 5.72018 19 5.375V1.625C19 1.27982 18.7202 1 18.375 1Z" fill="#F4538A"/>
</svg>
