<svg width="19" height="19" viewBox="0 0 19 19" fill="none" xmlns="http://www.w3.org/2000/svg">
<path d="M9.5 8.75C10.05 8.75 10.521 8.55433 10.913 8.163C11.305 7.77167 11.5007 7.30067 11.5 6.75C11.4993 6.19933 11.3037 5.72867 10.913 5.338C10.5223 4.94733 10.0513 4.75133 9.5 4.75C8.94867 4.74867 8.478 4.94467 8.088 5.338C7.698 5.73133 7.502 6.202 7.5 6.75C7.498 7.298 7.694 7.769 8.088 8.163C8.482 8.557 8.95267 8.75267 9.5 8.75ZM4.5 8.55V4.75H2.5V5.75C2.5 6.38333 2.68333 6.95433 3.05 7.463C3.41667 7.97167 3.9 8.334 4.5 8.55ZM14.5 8.55C15.1 8.33333 15.5833 7.97067 15.95 7.462C16.3167 6.95333 16.5 6.38267 16.5 5.75V4.75H14.5V8.55ZM8.5 16.75V13.65C7.68333 13.4667 6.95433 13.121 6.313 12.613C5.67167 12.105 5.20067 11.4673 4.9 10.7C3.65 10.55 2.60433 10.0043 1.763 9.063C0.921667 8.12167 0.500667 7.01733 0.5 5.75V4.75C0.5 4.2 0.696 3.72933 1.088 3.338C1.48 2.94667 1.95067 2.75067 2.5 2.75H4.5C4.5 2.2 4.696 1.72933 5.088 1.338C5.48 0.946667 5.95067 0.750667 6.5 0.75H12.5C13.05 0.75 13.521 0.946 13.913 1.338C14.305 1.73 14.5007 2.20067 14.5 2.75H16.5C17.05 2.75 17.521 2.946 17.913 3.338C18.305 3.73 18.5007 4.20067 18.5 4.75V5.75C18.5 7.01667 18.079 8.121 17.237 9.063C16.395 10.005 15.3493 10.5507 14.1 10.7C13.8 11.4667 13.3293 12.1043 12.688 12.613C12.0467 13.1217 11.3173 13.4673 10.5 13.65V16.75H13.5C13.7833 16.75 14.021 16.846 14.213 17.038C14.405 17.23 14.5007 17.4673 14.5 17.75C14.4993 18.0327 14.4033 18.2703 14.212 18.463C14.0207 18.6557 13.7833 18.7513 13.5 18.75H5.5C5.21667 18.75 4.97933 18.654 4.788 18.462C4.59667 18.27 4.50067 18.0327 4.5 17.75C4.49933 17.4673 4.59533 17.23 4.788 17.038C4.98067 16.846 5.218 16.75 5.5 16.75H8.5Z" fill="#F4538A"/>
</svg>
