<svg width="24" height="24" viewBox="0 0 24 24" fill="none" xmlns="http://www.w3.org/2000/svg">
<path d="M20.35 8.92261L19.984 8.71861C19.6619 8.55274 19.391 8.30249 19.2 7.99461C19.183 7.96761 19.167 7.93861 19.135 7.88261C18.9195 7.53649 18.8149 7.13282 18.835 6.72561L18.841 6.30061C18.853 5.62061 18.859 5.27861 18.763 4.97261C18.6781 4.70032 18.536 4.44937 18.346 4.23661C18.132 3.99661 17.835 3.82461 17.24 3.48261L16.746 3.19761C16.154 2.85661 15.857 2.68561 15.542 2.62061C15.2637 2.56299 14.9763 2.56537 14.699 2.62761C14.386 2.69761 14.093 2.87361 13.508 3.22361L13.505 3.22561L13.151 3.43661C13.095 3.47061 13.066 3.48661 13.038 3.50261C12.76 3.65761 12.45 3.74261 12.131 3.75261C12.099 3.75461 12.066 3.75461 12.001 3.75461L11.871 3.75361C11.5519 3.74356 11.2398 3.65714 10.961 3.50161C10.933 3.48661 10.906 3.46961 10.85 3.43561L10.493 3.22161C9.90402 2.86761 9.60902 2.69161 9.29402 2.62061C9.01568 2.55824 8.72721 2.5562 8.44802 2.61461C8.13202 2.68061 7.83602 2.85261 7.24302 3.19661L7.24002 3.19761L6.75202 3.48061L6.74702 3.48461C6.15902 3.82461 5.86402 3.99661 5.65202 4.23561C5.4631 4.448 5.32162 4.69823 5.23702 4.96961C5.14202 5.27661 5.14702 5.61861 5.15902 6.30261L5.16602 6.72661C5.16602 6.79161 5.16902 6.82361 5.16802 6.85461C5.16274 7.21791 5.05869 7.57293 4.86702 7.88161C4.83402 7.93761 4.81902 7.96561 4.80202 7.99161C4.63341 8.26378 4.40192 8.49149 4.12702 8.65561L4.01502 8.71861L3.65402 8.91861C3.05202 9.25161 2.75102 9.41861 2.53302 9.65661C2.3392 9.86644 2.19258 10.1154 2.10302 10.3866C2.00302 10.6936 2.00302 11.0366 2.00402 11.7246L2.00602 12.2876C2.00702 12.9706 2.00902 13.3116 2.11002 13.6166C2.1992 13.8862 2.34476 14.1337 2.53702 14.3426C2.75502 14.5786 3.05302 14.7446 3.65002 15.0766L4.00802 15.2756C4.06902 15.3096 4.10002 15.3256 4.12902 15.3436C4.44239 15.5315 4.69832 15.8016 4.86902 16.1246L4.93602 16.2446C5.10493 16.5635 5.1844 16.9222 5.16602 17.2826L5.15902 17.6896C5.14702 18.3756 5.14202 18.7196 5.23802 19.0266C5.32302 19.2986 5.46502 19.5496 5.65502 19.7626C5.86902 20.0026 6.16702 20.1736 6.76102 20.5166L7.25502 20.8016C7.84802 21.1426 8.14402 21.3136 8.45902 21.3786C8.73732 21.4362 9.02471 21.4338 9.30202 21.3716C9.61602 21.3016 9.90902 21.1256 10.496 20.7736L10.85 20.5616C11.1549 20.3653 11.5075 20.2557 11.87 20.2446H12.13C12.448 20.2546 12.76 20.3416 13.04 20.4966L13.132 20.5516L13.508 20.7776C14.098 21.1316 14.392 21.3076 14.707 21.3776C14.9852 21.4406 15.2737 21.4433 15.553 21.3856C15.868 21.3196 16.166 21.1466 16.759 20.8026L17.254 20.5156C17.842 20.1736 18.137 20.0026 18.349 19.7636C18.539 19.5506 18.679 19.3006 18.764 19.0296C18.859 18.7246 18.854 18.3856 18.842 17.7116L18.834 17.2716C18.8142 16.865 18.9188 16.4621 19.134 16.1166L19.199 16.0066C19.3676 15.7344 19.5991 15.5067 19.874 15.3426L19.984 15.2816L19.986 15.2806L20.347 15.0806C20.949 14.7466 21.25 14.5806 21.469 14.3426C21.663 14.1326 21.809 13.8826 21.898 13.6126C21.998 13.3076 21.998 12.9656 21.996 12.2856L21.994 11.7116C21.993 11.0286 21.992 10.6866 21.891 10.3816C21.8014 10.1123 21.6555 9.8652 21.463 9.65661C21.246 9.42061 20.948 9.25461 20.352 8.92361L20.35 8.92261Z" fill="#F1D9DB" stroke="#F4538A" stroke-width="1.7" stroke-linecap="round" stroke-linejoin="round"/>
<path d="M8 12C8 13.0609 8.42143 14.0783 9.17157 14.8284C9.92172 15.5786 10.9391 16 12 16C13.0609 16 14.0783 15.5786 14.8284 14.8284C15.5786 14.0783 16 13.0609 16 12C16 10.9391 15.5786 9.92172 14.8284 9.17157C14.0783 8.42143 13.0609 8 12 8C10.9391 8 9.92172 8.42143 9.17157 9.17157C8.42143 9.92172 8 10.9391 8 12Z" fill="#F4538A" stroke="#F4538A" stroke-width="1.7" stroke-linecap="round" stroke-linejoin="round"/>
</svg>
