<svg width="22" height="22" viewBox="0 0 22 22" fill="none" xmlns="http://www.w3.org/2000/svg">
<path d="M19.3501 8.173L18.9841 7.969C18.662 7.80313 18.391 7.55289 18.2001 7.245C18.1831 7.218 18.1671 7.189 18.1351 7.133C17.9196 6.78688 17.8149 6.38322 17.8351 5.976L17.8411 5.551C17.8531 4.871 17.8591 4.529 17.7631 4.223C17.6782 3.95072 17.536 3.69976 17.3461 3.487C17.1321 3.247 16.8351 3.075 16.2401 2.733L15.7461 2.448C15.1541 2.107 14.8571 1.936 14.5421 1.871C14.2638 1.81338 13.9764 1.81577 13.6991 1.878C13.3861 1.948 13.0931 2.124 12.5081 2.474L12.5051 2.476L12.1511 2.687C12.0951 2.721 12.0661 2.737 12.0381 2.753C11.7601 2.908 11.4501 2.993 11.1311 3.003C11.0991 3.005 11.0661 3.005 11.0011 3.005L10.8711 3.004C10.552 2.99396 10.2399 2.90754 9.96108 2.752C9.93308 2.737 9.90608 2.72 9.85008 2.686L9.49308 2.472C8.90408 2.118 8.60908 1.942 8.29408 1.871C8.01574 1.80864 7.72727 1.80659 7.44808 1.865C7.13208 1.931 6.83608 2.103 6.24308 2.447L6.24008 2.448L5.75208 2.731L5.74708 2.735C5.15908 3.075 4.86408 3.247 4.65208 3.486C4.46316 3.6984 4.32168 3.94863 4.23708 4.22C4.14208 4.527 4.14708 4.869 4.15908 5.553L4.16608 5.977C4.16608 6.042 4.16908 6.074 4.16808 6.105C4.1628 6.46831 4.05875 6.82333 3.86708 7.132C3.83408 7.188 3.81908 7.216 3.80208 7.242C3.63347 7.51418 3.40198 7.74189 3.12708 7.906L3.01508 7.969L2.65408 8.169C2.05208 8.502 1.75108 8.669 1.53308 8.907C1.33926 9.11684 1.19264 9.36576 1.10308 9.637C1.00308 9.944 1.00308 10.287 1.00408 10.975L1.00608 11.538C1.00708 12.221 1.00908 12.562 1.11008 12.867C1.19926 13.1366 1.34483 13.3841 1.53708 13.593C1.75508 13.829 2.05308 13.995 2.65008 14.327L3.00808 14.526C3.06908 14.56 3.10008 14.576 3.12908 14.594C3.44245 14.7819 3.69838 15.052 3.86908 15.375L3.93608 15.495C4.10499 15.8139 4.18447 16.1726 4.16608 16.533L4.15908 16.94C4.14708 17.626 4.14208 17.97 4.23808 18.277C4.32308 18.549 4.46508 18.8 4.65508 19.013C4.86908 19.253 5.16708 19.424 5.76108 19.767L6.25508 20.052C6.84808 20.393 7.14408 20.564 7.45908 20.629C7.73738 20.6866 8.02477 20.6842 8.30208 20.622C8.61608 20.552 8.90908 20.376 9.49608 20.024L9.85008 19.812C10.155 19.6157 10.5076 19.5061 10.8701 19.495H11.1301C11.4481 19.505 11.7601 19.592 12.0401 19.747L12.1321 19.802L12.5081 20.028C13.0981 20.382 13.3921 20.558 13.7071 20.628C13.9853 20.691 14.2737 20.6937 14.5531 20.636C14.8681 20.57 15.1661 20.397 15.7591 20.053L16.2541 19.766C16.8421 19.424 17.1371 19.253 17.3491 19.014C17.5391 18.801 17.6791 18.551 17.7641 18.28C17.8591 17.975 17.8541 17.636 17.8421 16.962L17.8341 16.522C17.8142 16.1154 17.9189 15.7125 18.1341 15.367L18.1991 15.257C18.3677 14.9848 18.5992 14.7571 18.8741 14.593L18.9841 14.532L18.9861 14.531L19.3471 14.331C19.9491 13.997 20.2501 13.831 20.4691 13.593C20.6631 13.383 20.8091 13.133 20.8981 12.863C20.9981 12.558 20.9981 12.216 20.9961 11.536L20.9941 10.962C20.9931 10.279 20.9921 9.937 20.8911 9.632C20.8014 9.36273 20.6555 9.1156 20.4631 8.907C20.2461 8.671 19.9481 8.505 19.3521 8.174L19.3501 8.173Z" stroke="#F5DD61" stroke-width="2" stroke-linecap="round" stroke-linejoin="round"/>
<path d="M7 11.25C7 12.3109 7.42143 13.3283 8.17157 14.0784C8.92172 14.8286 9.93913 15.25 11 15.25C12.0609 15.25 13.0783 14.8286 13.8284 14.0784C14.5786 13.3283 15 12.3109 15 11.25C15 10.1891 14.5786 9.17172 13.8284 8.42157C13.0783 7.67143 12.0609 7.25 11 7.25C9.93913 7.25 8.92172 7.67143 8.17157 8.42157C7.42143 9.17172 7 10.1891 7 11.25Z" stroke="#F5DD61" stroke-width="2" stroke-linecap="round" stroke-linejoin="round"/>
</svg>
